<svg xmlns="http://www.w3.org/2000/svg" viewBox="0 0 24 24" fill="currentColor">
  <path d="M12 .297c-6.63 0-12 5.373-12 12 0 5.303 3.438 9.8 8.205 11.387.6.113.82-.258.82-.577 0-.285-.01-1.04-.015-2.04-3.338.724-4.042-1.416-4.042-1.416-.546-1.387-1.333-1.756-1.333-1.756-1.09-.744.083-.73.083-.73 1.205.085 1.84 1.237 1.84 1.237 1.07 1.834 2.809 1.304 3.495.997.108-.776.418-1.304.76-1.604-2.665-.303-5.466-1.334-5.466-5.932 0-1.31.47-2.381 1.236-3.221-.124-.303-.536-1.523.117-3.176 0 0 1.008-.322 3.301 1.23.957-.266 1.98-.399 3-.404 1.02.005 2.043.138 3 .404 2.291-1.552 3.297-1.23 3.297-1.23.654 1.653.242 2.873.118 3.176.77.84 1.235 1.911 1.235 3.221 0 4.61-2.804 5.625-5.476 5.921.43.37.814 1.102.814 2.222 0 1.606-.015 2.896-.015 3.293 0 .319.218.694.825.576C20.565 22.092 24 17.592 24 12.297c0-6.627-5.373-12-12-12"/>
</svg>