<svg xmlns="http://www.w3.org/2000/svg" viewBox="0 0 24 24" fill="currentColor">
  <path d="M20.447 20.452h-3.554v-5.569c0-1.328-.026-3.037-1.849-3.037-1.85 0-2.134 1.445-2.134 2.939v5.667H9.358V9h3.414v1.561h.049c.476-.9 1.637-1.849 3.369-1.849 3.602 0 4.268 2.369 4.268 5.455v6.285zM5.337 7.433c-1.144 0-2.069-.928-2.069-2.07 0-1.143.925-2.07 2.069-2.07 1.144 0 2.07.927 2.07 2.07 0 1.142-.926 2.07-2.07 2.07zm1.777 13.019H3.56V9h3.554v11.452zM22.225 0H1.771C.792 0 0 .774 0 1.729v20.542C0 23.225.792 24 1.771 24h20.451C23.2 24 24 23.225 24 22.271V1.729C24 .774 23.2 0 22.225 0z"/>
</svg>